HIERARCHY
ROOT Hips
{
	OFFSET -0.001795 -0.223333 0.028219
	CHANNELS 6 Xposition Yposition Zposition Zrotation Yrotation Xrotation 
	JOINT LeftUpLeg
	{
		OFFSET 0.069520 -0.091406 -0.006815
		CHANNELS 3 Zrotation Yrotation Xrotation
		JOINT LeftLeg
		{
			OFFSET 0.034277 -0.375199 -0.004496
			CHANNELS 3 Zrotation Yrotation Xrotation
			JOINT LeftFoot
			{
				OFFSET -0.013596 -0.397961 -0.043693
				CHANNELS 3 Zrotation Yrotation Xrotation
				JOINT LeftToe
				{
					OFFSET 0.026358 -0.055791 0.119288
					CHANNELS 3 Zrotation Yrotation Xrotation
					End Site
					{
						OFFSET 0.000000 0.000000 0.000000
					}
				}
			}
		}
	}
	JOINT RightUpLeg
	{
		OFFSET -0.067670 -0.090522 -0.004320
		CHANNELS 3 Zrotation Yrotation Xrotation
		JOINT RightLeg
		{
			OFFSET -0.038290 -0.382569 -0.008850
			CHANNELS 3 Zrotation Yrotation Xrotation
			JOINT RightFoot
			{
				OFFSET 0.015774 -0.398415 -0.042312
				CHANNELS 3 Zrotation Yrotation Xrotation
				JOINT RightToe
				{
					OFFSET -0.025372 -0.048144 0.123348
					CHANNELS 3 Zrotation Yrotation Xrotation
					End Site
					{
						OFFSET 0.000000 0.000000 0.000000
					}
				}
			}
		}
	}
	JOINT Spine
	{
		OFFSET -0.002533 0.108963 -0.026696
		CHANNELS 3 Zrotation Yrotation Xrotation
		JOINT Spine1
		{
			OFFSET 0.005487 0.135180 0.001092
			CHANNELS 3 Zrotation Yrotation Xrotation
			JOINT Spine2
			{
				OFFSET 0.001457 0.052922 0.025425
				CHANNELS 3 Zrotation Yrotation Xrotation
				JOINT Neck
				{
					OFFSET -0.002778 0.213870 -0.042857
					CHANNELS 3 Zrotation Yrotation Xrotation
					JOINT Head
					{
						OFFSET 0.005152 0.064970 0.051349
						CHANNELS 3 Zrotation Yrotation Xrotation
						End Site
						{
							OFFSET 0.000000 0.000000 0.000000
						}
					}
				}
				JOINT LeftShoulder
				{
					OFFSET 0.078845 0.121749 -0.034090
					CHANNELS 3 Zrotation Yrotation Xrotation
					JOINT LeftArm
					{
						OFFSET 0.090977 0.030469 -0.008868
						CHANNELS 3 Zrotation Yrotation Xrotation
						JOINT LeftForeArm
						{
							OFFSET 0.259612 -0.012772 -0.027456
							CHANNELS 3 Zrotation Yrotation Xrotation
							JOINT LeftHand
							{
								OFFSET 0.249234 0.008986 -0.001171
								CHANNELS 3 Zrotation Yrotation Xrotation
								End Site
								{
									OFFSET 0.000000 0.000000 0.000000
								}
							}
						}
					}
				}
				JOINT RightShoulder
				{
					OFFSET -0.081759 0.118833 -0.038615
					CHANNELS 3 Zrotation Yrotation Xrotation
					JOINT RightArm
					{
						OFFSET -0.096012 0.032551 -0.009143
						CHANNELS 3 Zrotation Yrotation Xrotation
						JOINT RightForeArm
						{
							OFFSET -0.253742 -0.013329 -0.021401
							CHANNELS 3 Zrotation Yrotation Xrotation
							JOINT RightHand
							{
								OFFSET -0.255298 0.007772 -0.005559
								CHANNELS 3 Zrotation Yrotation Xrotation
								End Site
								{
									OFFSET 0.000000 0.000000 0.000000
								}
							}
						}
					}
				}
			}
		}
	}
}
MOTION
Frames: 18
Frame Time: 0.050000
0.000000 0.951936 0.000000 2.990228 3.253699 13.334421 3.891087 -0.879782 -11.631469 -0.471995 0.003834 1.327383 2.117990 8.379871 11.777453 0.000000 0.000000 0.000000 -4.023655 1.430441 -21.026746 -1.801595 0.339273 2.789715 -4.013770 -13.452188 22.983638 0.000000 0.000000 0.000000 7.078599 -2.165442 16.179586 1.724092 -0.815653 0.256609 -5.794071 0.420303 8.833411 11.156238 -5.901643 -13.709502 0.000000 0.000000 0.000000 -7.827526 -29.158545 11.776909 -50.549485 -37.363258 9.880573 -9.494764 -44.780086 5.724093 0.000000 0.000000 0.000000 8.212998 16.341024 7.049751 61.307731 29.757605 10.078586 -1.863077 32.036647 0.905349 0.000000 0.000000 0.000000 
-0.001030 0.952676 -0.000931 2.840619 3.543950 14.373229 4.256951 -0.903248 -12.081522 0.580705 -0.048509 -0.214935 0.256098 5.733202 12.894651 0.000000 0.000000 0.000000 -3.759849 1.501882 -21.691484 -1.698719 0.290483 2.109484 -4.471238 -14.096168 22.996102 0.000000 0.000000 0.000000 6.039203 -1.920387 15.518147 2.501705 -1.135181 -0.314588 -6.336355 2.341430 9.259278 13.301601 -7.144240 -13.671835 0.000000 0.000000 0.000000 -8.978754 -27.818216 10.976251 -49.361360 -35.687077 8.676972 -15.971165 -47.406781 8.716038 0.000000 0.000000 0.000000 7.839589 15.538315 6.983670 60.889331 29.426878 9.995853 -0.787853 34.891435 1.480929 0.000000 0.000000 0.000000 
-0.001909 0.953322 -0.002556 2.288746 4.620166 13.855157 5.113388 -0.860182 -11.910857 0.120707 0.000538 -0.358127 0.288147 6.032369 13.250873 0.000000 0.000000 0.000000 -2.599665 1.557739 -20.535773 -2.543343 0.353141 1.326962 -4.666386 -14.177186 22.997139 0.000000 0.000000 0.000000 6.174748 -2.031363 16.054576 2.497030 -1.174418 0.208445 -7.003868 2.024953 7.870809 13.025986 -7.685480 -10.503262 0.000000 0.000000 0.000000 -9.102185 -26.719551 10.375896 -48.226194 -33.219396 7.458169 -16.410384 -47.444585 8.775746 0.000000 0.000000 0.000000 8.739677 16.251870 7.489592 59.621938 30.661504 10.472272 -0.152050 33.006281 1.525556 0.000000 0.000000 0.000000 
-0.002703 0.953586 -0.004835 2.186002 5.301490 14.069718 5.640095 -0.874419 -12.389084 0.105897 0.023341 -0.953496 -0.697237 5.009669 14.583843 0.000000 0.000000 0.000000 -2.454208 1.579572 -20.961948 -2.305179 0.338930 1.546967 -5.454457 -15.257069 23.357031 0.000000 0.000000 0.000000 6.250849 -2.043639 15.809067 1.972376 -0.968217 0.675282 -7.579669 2.401651 8.161147 14.016271 -7.870578 -12.169123 0.000000 0.000000 0.000000 -8.315569 -27.274649 10.379348 -47.692665 -32.293240 6.904981 -16.495149 -49.303447 9.062494 0.000000 0.000000 0.000000 6.353259 15.964128 7.116839 61.453265 31.728850 11.822206 -1.939312 34.733863 1.177285 0.000000 0.000000 0.000000 
-0.003090 0.953270 -0.007714 2.117406 6.621748 13.574078 6.024987 -0.853906 -11.990137 -0.126678 0.058205 -1.414280 -1.406737 3.991222 14.341816 0.000000 0.000000 0.000000 -2.267384 1.513101 -20.234608 -2.434930 0.331181 1.055097 -6.238365 -16.187040 24.140030 0.000000 0.000000 0.000000 6.308519 -2.083346 15.839321 1.902382 -0.981110 1.172957 -8.185177 2.175531 7.704676 14.699149 -8.587081 -11.143076 0.000000 0.000000 0.000000 -9.982008 -27.802167 10.707309 -45.291500 -30.879404 5.987409 -14.888878 -49.597598 8.267470 0.000000 0.000000 0.000000 7.413529 16.670092 7.673298 58.664430 32.914322 11.682923 -2.026337 35.197897 1.192077 0.000000 0.000000 0.000000 
-0.003402 0.953192 -0.010494 1.779850 6.709018 13.164592 6.338538 -0.816725 -11.554408 -0.025315 0.055864 -1.582732 -1.434559 3.771704 13.866458 0.000000 0.000000 0.000000 -1.819181 1.559314 -20.023704 -2.354346 0.321788 1.048919 -6.620537 -16.743514 24.330169 0.000000 0.000000 0.000000 6.229382 -2.082087 16.020208 1.179048 -0.634898 1.058031 -8.053029 3.178582 8.128050 15.575756 -8.872367 -12.135563 0.000000 0.000000 0.000000 -10.251850 -28.541522 10.878022 -43.983039 -30.172808 5.473679 -12.832216 -50.323516 7.280622 0.000000 0.000000 0.000000 6.415146 17.230976 7.889077 57.178159 34.781237 12.383268 -4.235060 37.350859 0.683256 0.000000 0.000000 0.000000 
-0.003449 0.952658 -0.012863 1.739262 6.733018 12.882588 6.587601 -0.808296 -11.659484 -0.338081 0.086242 -1.779199 -1.509912 4.093861 15.023897 0.000000 0.000000 0.000000 -1.774609 1.534368 -19.532112 -2.354864 0.287826 0.439488 -6.628129 -16.746217 24.305868 0.000000 0.000000 0.000000 5.833501 -1.943106 15.576066 0.544798 -0.338551 1.055617 -8.039466 3.124060 8.122636 15.268355 -8.708572 -11.994969 0.000000 0.000000 0.000000 -10.671314 -27.507259 10.421408 -43.573121 -29.092884 5.033021 -11.653124 -51.061512 6.801507 0.000000 0.000000 0.000000 6.648441 17.624273 8.107165 56.143826 36.050500 12.713292 -5.511969 39.165926 0.350565 0.000000 0.000000 0.000000 
-0.003449 0.952878 -0.014277 1.287281 5.936602 12.577230 6.681195 -0.779615 -11.539259 -0.194308 0.076931 -1.814716 -0.459052 5.876386 15.843430 0.000000 0.000000 0.000000 -1.363688 1.579842 -19.018109 -2.216114 0.232952 -0.207697 -5.953225 -15.908391 23.979943 0.000000 0.000000 0.000000 5.527347 -1.779830 14.882178 -0.376900 0.127214 0.422501 -7.550108 3.490486 8.590158 14.376545 -8.413369 -11.002734 0.000000 0.000000 0.000000 -10.146069 -26.375196 9.844462 -43.868338 -28.175006 4.682261 -10.901567 -52.059075 6.562236 0.000000 0.000000 0.000000 6.159779 17.521469 7.946857 56.280458 36.668067 13.077250 -5.647481 42.572392 0.441063 0.000000 0.000000 0.000000 
-0.003567 0.953164 -0.014292 0.951504 5.764532 12.066619 6.726157 -0.744690 -11.017375 0.008078 0.066126 -1.958665 0.140946 6.860363 16.170452 0.000000 0.000000 0.000000 -0.801717 1.581756 -18.014809 -2.721531 0.253293 -0.752557 -5.108378 -14.646974 23.235119 0.000000 0.000000 0.000000 5.167547 -1.621063 14.154403 -0.920889 0.404079 -0.235072 -7.050483 3.646646 9.099897 13.346244 -7.814572 -10.658058 0.000000 0.000000 0.000000 -9.987922 -25.002022 9.183775 -44.036180 -27.182540 4.288863 -10.883186 -52.787849 6.621359 0.000000 0.000000 0.000000 5.396245 16.943945 7.516356 57.407216 36.331198 13.301166 -5.231146 47.475904 0.829790 0.000000 0.000000 0.000000 
-0.003732 0.953500 -0.012765 0.856701 5.312549 11.634692 6.584092 -0.718896 -10.633160 0.020049 0.056396 -1.697573 0.931394 8.069746 16.502711 0.000000 0.000000 0.000000 -0.603982 1.554475 -17.248121 -3.542728 0.356696 -0.441268 -3.133143 -11.515880 21.337405 0.000000 0.000000 0.000000 4.719765 -1.422994 13.169577 -1.356377 0.642750 -1.491512 -7.026987 3.923525 10.025060 12.882007 -7.540615 -10.620376 0.000000 0.000000 0.000000 -8.868314 -23.397590 8.358315 -44.755389 -25.504102 3.635028 -13.120649 -54.547610 7.958519 0.000000 0.000000 0.000000 5.415808 16.001876 7.101189 58.892237 35.155051 13.043201 -1.731476 54.765096 3.063055 0.000000 0.000000 0.000000 
-0.003864 0.953433 -0.009819 0.476588 5.287223 10.911515 6.810311 -0.673841 -9.991326 -0.139626 0.067492 -1.645736 1.898338 9.648097 17.177645 0.000000 0.000000 0.000000 -0.333143 1.476391 -15.910251 -4.403584 0.452977 -0.359289 -0.708075 -7.308649 19.567371 0.000000 0.000000 0.000000 4.581892 -1.274188 11.992240 -1.959051 0.922502 -1.967071 -6.680564 4.480349 10.106011 12.371956 -7.240271 -10.315789 0.000000 0.000000 0.000000 -9.052257 -22.089172 7.680162 -44.451036 -23.409935 2.843036 -18.013701 -56.183909 10.670570 0.000000 0.000000 0.000000 6.347454 14.613696 6.684396 59.421196 32.588733 11.691236 7.006763 63.365597 9.469599 0.000000 0.000000 0.000000 
-0.003569 0.953362 -0.006097 0.162745 4.605661 10.245658 6.944159 -0.625053 -9.385316 -0.154461 0.056218 -1.257105 2.812780 11.020486 17.930926 0.000000 0.000000 0.000000 -0.329468 1.383502 -14.673821 -4.755713 0.475990 -0.484339 1.421873 -3.523016 18.240405 0.000000 0.000000 0.000000 4.599549 -1.138380 10.727300 -2.606151 1.218627 -2.726254 -6.508530 5.300289 10.405140 11.929984 -6.983813 -10.037027 0.000000 0.000000 0.000000 -8.583956 -20.292086 6.792395 -44.726516 -21.316011 2.064237 -24.904440 -56.353001 14.268231 0.000000 0.000000 0.000000 6.145922 12.758967 5.862072 60.569370 30.010249 10.569988 28.716217 70.577048 27.086283 0.000000 0.000000 0.000000 
-0.002970 0.953149 -0.002109 -0.036015 4.508631 9.777187 6.829553 -0.601141 -8.882008 0.065550 0.024594 -0.893211 3.425903 11.854860 17.855860 0.000000 0.000000 0.000000 -0.356511 1.306261 -13.783922 -4.299352 0.409693 -0.747197 1.460018 -3.407175 18.007586 0.000000 0.000000 0.000000 4.391922 -0.975154 9.325129 -3.101653 1.438312 -3.256090 -6.053669 5.786203 10.466312 11.517623 -6.790946 -9.581251 0.000000 0.000000 0.000000 -8.439431 -18.984466 6.162710 -44.422618 -19.086727 1.236452 -32.866854 -55.970562 18.361037 0.000000 0.000000 0.000000 5.816401 11.514023 5.279857 59.143767 28.420235 9.336371 61.607499 72.008161 54.617852 0.000000 0.000000 0.000000 
-0.001981 0.952944 0.001849 -0.220057 4.030752 9.106652 6.773196 -0.559672 -8.200348 0.420505 -0.042737 0.017053 3.461554 11.700994 17.129312 0.000000 0.000000 0.000000 -0.316412 1.215862 -12.668022 -4.042793 0.355292 -1.106792 1.704959 -3.005319 17.762462 0.000000 0.000000 0.000000 4.363970 -0.831384 7.886905 -3.554397 1.635216 -3.577116 -5.952510 6.934973 10.600331 11.197056 -6.402524 -9.932141 0.000000 0.000000 0.000000 -7.526131 -17.392935 5.363992 -44.999843 -17.698904 0.705871 -39.675754 -54.943448 21.365482 0.000000 0.000000 0.000000 4.783882 10.004828 4.543421 58.288847 27.328277 8.688363 86.735844 69.030670 75.208505 0.000000 0.000000 0.000000 
-0.000822 0.952688 0.005662 -0.106421 4.496095 8.578599 6.552531 -0.535437 -7.424102 0.760933 -0.090466 0.360398 2.737788 10.461783 15.907682 0.000000 0.000000 0.000000 -0.714651 1.084178 -11.526614 -3.583771 0.285215 -1.522408 1.455812 -3.271624 17.521319 0.000000 0.000000 0.000000 4.445710 -0.736270 6.752392 -4.133971 1.885810 -4.039641 -5.764797 7.645768 10.893305 11.206480 -6.410363 -9.720042 0.000000 0.000000 0.000000 -7.313637 -16.467431 4.857852 -44.967970 -15.794904 0.005961 -46.647357 -53.871206 24.350606 0.000000 0.000000 0.000000 3.454955 8.980343 3.974476 56.332481 26.904732 8.194782 101.458508 64.869590 86.228062 0.000000 0.000000 0.000000 
0.000224 0.952520 0.009014 -0.052087 4.867871 7.816684 6.562007 -0.495286 -6.519845 0.872000 -0.133381 1.087347 1.958642 8.956920 14.307560 0.000000 0.000000 0.000000 -1.013902 0.945839 -10.161002 -3.165826 0.219271 -1.963994 1.281545 -3.445359 17.321275 0.000000 0.000000 0.000000 4.478800 -0.654551 5.903056 -4.546032 2.068041 -4.117813 -5.676390 8.882510 10.747392 11.666631 -6.428618 -10.465723 0.000000 0.000000 0.000000 -7.131735 -15.413646 4.238296 -45.275337 -14.127520 -0.575299 -52.710760 -53.318304 26.857373 0.000000 0.000000 0.000000 2.892821 7.873551 3.511716 54.727621 26.357490 7.744560 109.581425 61.526700 92.314549 0.000000 0.000000 0.000000 
0.001052 0.952238 0.011591 0.017823 5.422675 7.276163 6.430156 -0.463424 -5.649324 1.007194 -0.129890 0.700181 1.659538 8.504114 14.065860 0.000000 0.000000 0.000000 -1.203308 0.850061 -9.184988 -2.962361 0.190158 -2.178757 0.999701 -3.776220 17.114182 0.000000 0.000000 0.000000 4.421354 -0.560323 4.937910 -4.958155 2.248162 -4.244070 -5.679151 9.776374 10.765187 11.769789 -6.439237 -10.373985 0.000000 0.000000 0.000000 -6.768614 -14.489069 3.745236 -45.763871 -12.598288 -1.159701 -57.522471 -53.857309 29.417349 0.000000 0.000000 0.000000 2.632540 7.291430 3.288487 53.094170 26.692142 7.684235 114.238426 60.363519 97.121506 0.000000 0.000000 0.000000 
0.001595 0.952154 0.013334 -0.090883 5.624649 6.941134 6.461801 -0.446242 -5.249281 1.152235 -0.147234 0.753890 1.574321 8.350825 13.894748 0.000000 0.000000 0.000000 -1.243444 0.786752 -8.463709 -2.684068 0.141051 -2.572810 0.936078 -3.854620 17.122248 0.000000 0.000000 0.000000 4.615431 -0.490517 3.997868 -5.516244 2.486006 -4.229591 -5.597288 11.113470 10.613863 12.041798 -6.587760 -10.167468 0.000000 0.000000 0.000000 -6.213389 -13.784864 3.356750 -46.955562 -12.251953 -1.386418 -59.088618 -54.434557 30.096385 0.000000 0.000000 0.000000 2.925930 6.500202 3.078137 52.331009 26.471892 7.528951 115.811355 59.905261 99.317164 0.000000 0.000000 0.000000 
